<svg height="178" viewBox="0 0 178 178" width="178" xmlns="http://www.w3.org/2000/svg" xmlns:xlink="http://www.w3.org/1999/xlink"><defs><radialGradient id="a" cx="50%" cy="15.025%" gradientTransform="matrix(0 1 -2.831036 0 .925374 -.349746)" r="84.975%"><stop offset="0" stop-color="#8b2f34"/><stop offset="1" stop-opacity=".5"/></radialGradient><rect id="b" height="176" rx="18" width="176" x=".183" y=".321"/><filter id="c" height="121.9%" width="145.7%" x="-22.9%" y="-11%"><feOffset dx="-2" dy="4" in="SourceAlpha" result="shadowOffsetOuter1"/><feGaussianBlur in="shadowOffsetOuter1" result="shadowBlurOuter1" stdDeviation="2"/><feColorMatrix in="shadowBlurOuter1" result="shadowMatrixOuter1" type="matrix" values="0 0 0 0 0 0 0 0 0 0 0 0 0 0 0 0 0 0 0.5 0"/><feMerge><feMergeNode in="shadowMatrixOuter1"/><feMergeNode in="SourceGraphic"/></feMerge></filter></defs><g fill="none" fill-rule="evenodd" transform="translate(.816643 .678539)"><use fill="#6c4c37" xlink:href="#b"/><use fill="url(#a)" fill-opacity=".72" xlink:href="#b"/><g filter="url(#c)" transform="translate(54 15)"><path d="m37.1833574.05569681c3.790295.41736167 6.7473859 1.05364261 8.8712729 1.90884283 6.6618167 2.68243428 11.5871203 7.00079953 15.2218574 12.45290526 8 12 10.0275675 31.4855089 5.3405056 33.904016-5.3405056 2.3278962-18.3717001-18.3664685-25.1256986-20.5607874-1.2397964-.4027997-2.3633812 3.5325306-3.6644611 11.7640277-.2861893 1.8106239-1.0133292 6.8709612-2.1814198 15.1810119z" fill="#fb6e56"/><g fill-rule="nonzero"><path d="m34.1833574 102.431769c.2047641 3.150057.5584142 5.952621.7518311 7.676107.1113865.992535.2478146 1.940209.3381689 2.203585.1746265 0 2.4939503-1.748947 5.9045783-4.997533 6.2681626-5.970356 15.3954027-18.4267635 19.5238816-18.4267635 6.9280256 0 5.4683707 17.1752335-2.2816293 32.1752335-3.3219777 6.429634-7.6738468 12.183955-13.4037063 17.03138-3.8199063 3.231616-7.4309477 5.640844-10.8331243 7.227683-2-26.128053-2-40.424617 0-42.889692z" fill="#59b8dd"/><path d="m.18335737 73.3214609h34.00000003v72.0000001c-3.3631553.432335-5.7810585.559887-7.2537095.382654-4.7571945-.572526-8.385076-2.468275-10.2962905-3.852654-4.1980145-3.040812-6.1098376-4.540748-9.20164496-11.573051-5.73269493-13.038992-8.14881329-32.0246414-7.24835507-56.9569491z" fill="#8ac33b"/><path d="m12.5815423 17.2692641c6.1666666-12.16666668 14.3672717-17.90452244 24.6018151-17.21356729-.1843868 19.33727149-.4276504 33.21189409-.7297908 41.62386769-.098017 2.7289155-.8547534 13.2762143-2.2702092 31.6418964h-34.00000003c2.09878994-25.2014645 6.23151825-43.8855301 12.39818493-56.0521968z" fill="#f8b912"/></g></g></g></svg>