<svg version="1" xmlns="http://www.w3.org/2000/svg" width="933.333" height="933.333" viewBox="0 0 700 700"><path d="M63.1 5.1C48.4 7.6 36 14 25 25 13.6 36.5 7.5 48.5 5 64.5c-.7 4.9-1 92.7-.8 290 .3 269.2.4 283.3 2.1 289 7.5 25 26 43.3 50.7 50.2 6.2 1.7 19.2 1.8 293 1.8s286.8-.1 293-1.8c24.9-7 43.7-25.8 50.7-50.7 1.7-6.2 1.8-19.2 1.8-293 0-274.2-.1-286.8-1.8-293-7-24.9-25-43.1-50.2-50.7-5.7-1.7-19.3-1.8-290.5-1.9-164.6-.1-286.8.2-289.9.7zm308.9 58c18.7 2.8 38.9 11.2 53.5 22.1 28.5 21.3 48.7 56.6 58.2 101.3 2.4 11.5 2.7 15.2 2.7 32 .1 15.9-.2 19.7-1.7 23.5-4.3 10.9-10.6 12.7-21.7 6.2-4.8-2.7-11.2-8.5-24-21.6-39.7-40.8-48.6-49.4-54-52.5-3-1.7-6.2-3.1-7.2-3.1-3.4 0-7.6 13.1-11.7 36.5-5.8 33.5-10.3 70.1-13.1 106-2.8 35.9-3 41.2-3 95 0 55 .5 66.2 3.6 89.7.7 5.8.6 5.9 12.9-4.8 11.2-9.8 16.5-15.2 37.5-38.4 38.3-42.4 49.4-49.8 59.7-39.8 19.1 18.5 3 93-31.2 144.3-17.2 25.8-40 48.3-64.9 63.9-17.2 10.8-17.6 10.9-36 11-18.4.1-23.1-.9-38.1-7.9-19.1-8.9-33.6-22.6-42.7-40.2-22.3-43-33-97.6-35.3-181.3-1.3-45.9 3.5-101.7 13.6-157.5 19.1-105.8 52.2-165.9 100.1-181.9 13.3-4.5 25.2-5.2 42.8-2.5z"/></svg>